<svg width="16" height="16" viewBox="0 0 16 16" fill="none" xmlns="http://www.w3.org/2000/svg">
<path d="M8 0C3.5888 0 0 3.5888 0 8C0 12.4112 3.5888 16 8 16C12.4112 16 16 12.4112 16 8C16 3.5888 12.4112 0 8 0ZM8 14.4C4.4712 14.4 1.6 11.5288 1.6 8C1.6 4.4712 4.4712 1.6 8 1.6C11.5288 1.6 14.4 4.4712 14.4 8C14.4 11.5288 11.5288 14.4 8 14.4Z" fill="#404040"/>
<path d="M7.99999 7.19999C6.39999 7.19999 6.39999 6.69919 6.39999 6.39999C6.39999 6.01279 6.96079 5.59999 7.99999 5.59999C8.94799 5.59999 9.10879 6.11039 9.11999 6.41439L9.91999 6.39999H10.72C10.72 5.57919 10.1872 4.42479 8.79999 4.09679V3.20959H7.19999V4.06799C5.62319 4.33279 4.79999 5.36959 4.79999 6.39999C4.79999 7.29599 5.21599 8.79999 7.99999 8.79999C9.59999 8.79999 9.59999 9.34079 9.59999 9.59999C9.59999 9.93199 9.10399 10.4 7.99999 10.4C6.52719 10.4 6.40879 9.71439 6.39999 9.59999H4.79999C4.79999 10.3344 5.32879 11.6424 7.19999 11.936V12.8H8.79999V11.932C10.3768 11.6672 11.2 10.6304 11.2 9.59999C11.2 8.70399 10.784 7.19999 7.99999 7.19999Z" fill="#404040"/>
</svg>
