<svg width="48" height="48" viewBox="0 0 48 48" fill="none" xmlns="http://www.w3.org/2000/svg">
<path d="M24 0C37.2548 0 48 10.7451 48 24C48 37.2549 37.2548 48 24 48C10.7452 48 0 37.2548 0 24C0 10.7452 10.745 0 24 0ZM9.2922 38.7078C12.9393 42.3438 17.8094 44.4917 22.9536 44.7331C28.0979 44.9744 33.1477 43.2919 37.1192 40.0133C41.0906 36.7348 43.6992 32.095 44.4366 26.9982C45.1741 21.9014 43.9875 16.7126 41.1081 12.4428C38.2287 8.17306 33.8629 5.12825 28.8612 3.90168C23.8595 2.6751 18.5802 3.35462 14.0522 5.80783C9.52414 8.26104 6.07163 12.3122 4.36737 17.1719C2.66312 22.0317 2.82922 27.3518 4.8333 32.0958C5.87779 34.5675 7.39209 36.8131 9.2922 38.7078Z" fill="#016450"/>
<path d="M25.6613 14.8943L18.156 22.3997H36.8113V25.5997H18.156L25.6613 33.1051L23.3986 35.3678L12.0305 23.9997L23.3986 12.6316L25.6613 14.8943Z" fill="#016450"/>
</svg>
