<svg width="48" height="48" viewBox="0 0 48 48" fill="none" xmlns="http://www.w3.org/2000/svg">
<path d="M24 0C10.7452 0 0 10.7451 0 24C0 37.2549 10.7452 48 24 48C37.2548 48 48 37.2548 48 24C48 10.7452 37.255 0 24 0ZM38.7078 38.7078C35.0607 42.3438 30.1906 44.4917 25.0464 44.7331C19.9021 44.9744 14.8523 43.2919 10.8808 40.0133C6.90935 36.7348 4.30077 32.095 3.56335 26.9982C2.82594 21.9014 4.01252 16.7126 6.89189 12.4428C9.77125 8.17306 14.1371 5.12825 19.1388 3.90168C24.1405 2.6751 29.4198 3.35462 33.9478 5.80783C38.4759 8.26104 41.9284 12.3122 43.6326 17.1719C45.3369 22.0317 45.1708 27.3518 43.1667 32.0958C42.1222 34.5675 40.6079 36.8131 38.7078 38.7078Z" fill="#016450"/>
<path d="M22.3387 14.8943L29.844 22.3997H11.1887V25.5997H29.844L22.3387 33.1051L24.6014 35.3678L35.9695 23.9997L24.6014 12.6316L22.3387 14.8943Z" fill="#016450"/>
</svg>
