<svg width="22" height="16" viewBox="0 0 22 16" fill="none" xmlns="http://www.w3.org/2000/svg">
<path opacity="0.75" d="M3.04762 0C1.79429 0 0.761905 1.03238 0.761905 2.28571V7.45219C0.297143 7.872 0 8.47314 0 9.14286V16H3.80952V14.4762H17.5238V16H21.3333V9.14286C21.3333 8.47314 21.0362 7.872 20.5714 7.45219V2.28571C20.5714 1.03238 19.539 0 18.2857 0H3.04762ZM3.04762 1.52381H18.2857C18.7086 1.52381 19.0476 1.86286 19.0476 2.28571V6.85714H17.5238V6.09524C17.5238 4.8419 16.4914 3.80952 15.2381 3.80952H12.1905C11.6069 3.80952 11.0712 4.0381 10.6667 4.40457C10.2502 4.02402 9.70703 3.81193 9.14286 3.80952H6.09524C4.8419 3.80952 3.80952 4.8419 3.80952 6.09524V6.85714H2.28571V2.28571C2.28571 1.86286 2.62476 1.52381 3.04762 1.52381ZM6.09524 5.33333H9.14286C9.56571 5.33333 9.90476 5.67238 9.90476 6.09524V6.85714H5.33333V6.09524C5.33333 5.67238 5.67238 5.33333 6.09524 5.33333ZM12.1905 5.33333H15.2381C15.661 5.33333 16 5.67238 16 6.09524V6.85714H11.4286V6.09524C11.4286 5.67238 11.7676 5.33333 12.1905 5.33333ZM2.28571 8.38095H19.0476C19.4705 8.38095 19.8095 8.72 19.8095 9.14286V14.4762H19.0476V12.9524H2.28571V14.4762H1.52381V9.14286C1.52381 8.72 1.86286 8.38095 2.28571 8.38095Z" fill="black"/>
</svg>
