<svg width="38" height="48" viewBox="0 0 38 48" fill="none" xmlns="http://www.w3.org/2000/svg">
<path d="M4.22786 15.7757C3.83593 15.7757 3.51819 16.0934 3.51819 16.4854V27.9653C3.51819 33.366 6.45992 38.3342 11.1955 40.9309L18.6588 45.0233C18.7651 45.0815 18.8825 45.1107 19 45.1107C19.1175 45.1107 19.2349 45.0815 19.3412 45.0233L26.8047 40.9309C31.5402 38.3342 34.482 33.366 34.482 27.9653V7.27839C34.482 6.95204 34.2593 6.66769 33.9425 6.58944L19.1792 2.94447C19.0674 2.91703 18.9508 2.91675 18.8391 2.94438L4.05792 6.58991C3.74093 6.66807 3.51819 6.95251 3.51819 7.27896V13.461C3.51819 13.8531 3.83593 14.1707 4.22786 14.1707C4.61979 14.1707 4.93753 13.8531 4.93753 13.461V7.83487L19.009 4.36438L33.0626 7.8342V27.9653C33.0626 32.8477 30.4032 37.3389 26.1222 39.6864L18.9999 43.5916L11.8778 39.6864C7.59681 37.3389 4.93744 32.8477 4.93744 27.9653V16.4854C4.93753 16.0934 4.61979 15.7757 4.22786 15.7757Z" fill="#016450"/>
<path d="M36.611 22.8452C37.003 22.8452 37.3206 22.5275 37.3206 22.1355V6.36518C37.3206 5.2668 36.5759 4.31575 35.5094 4.05241L19.1795 0.0207217C19.0677 -0.00681355 18.9511 -0.00690817 18.8395 0.0206271L2.49119 4.05241C1.42441 4.31556 0.679443 5.26671 0.679443 6.36537V27.9652C0.679443 34.4028 4.18598 40.3247 9.83061 43.4199L17.4599 47.6033C17.9422 47.8678 18.471 48 18.9999 47.9999C19.5289 47.9999 20.0579 47.8677 20.5399 47.6033L28.1694 43.4199C33.814 40.3247 37.3205 34.4028 37.3205 27.9652V25.1598C37.3205 24.7678 37.0029 24.4502 36.6109 24.4502C36.2188 24.4502 35.9012 24.7678 35.9012 25.1598V27.9652C35.9012 33.8844 32.677 39.3294 27.4869 42.1754L19.8574 46.3589C19.3205 46.6535 18.6794 46.6534 18.1423 46.3589L10.5129 42.1754C5.32278 39.3294 2.09869 33.8844 2.09869 27.9652V6.36537C2.09869 5.92131 2.39988 5.53676 2.83098 5.4305L19.0092 1.44054L35.169 5.43022C35.6001 5.53667 35.9011 5.92112 35.9011 6.36509V22.1354C35.9013 22.5274 36.2189 22.8452 36.611 22.8452Z" fill="#016450"/>
<path d="M10.0054 21.0047L18.553 14.0716C18.812 13.8614 19.1879 13.8613 19.447 14.0716L23.0857 17.023C23.3901 17.2698 23.8369 17.2233 24.084 16.9188C24.3308 16.6144 24.2842 16.1675 23.9798 15.9206L20.3412 12.9693C19.5639 12.3387 18.4358 12.339 17.6588 12.9692L9.11123 19.9023C8.78525 20.1668 8.58172 20.5422 8.53819 20.9597C8.49467 21.3772 8.61635 21.7865 8.88073 22.1126L9.5833 22.9788C9.98545 23.4746 10.6295 23.66 11.2099 23.5055V29.2583H10.9967C10.6048 29.2583 10.287 29.576 10.287 29.968C10.287 30.36 10.6048 30.6777 10.9967 30.6777H27.0065C27.3985 30.6777 27.7162 30.36 27.7162 29.968C27.7162 29.576 27.3985 29.2583 27.0065 29.2583H26.7899V23.5074C26.9205 23.5424 27.0558 23.5605 27.1932 23.5605C27.2481 23.5605 27.3036 23.5577 27.359 23.5518C27.7766 23.5083 28.1522 23.3049 28.4166 22.9788L29.119 22.1126C29.3835 21.7867 29.5052 21.3773 29.4616 20.9597C29.418 20.5422 29.2146 20.1667 28.8885 19.9024L26.3293 17.8265C26.0248 17.5794 25.578 17.6261 25.3311 17.9306C25.0842 18.235 25.1308 18.6818 25.4352 18.9287L27.9944 21.0048C28.0349 21.0376 28.047 21.0784 28.0499 21.107C28.0529 21.1355 28.0496 21.178 28.0167 21.2185L27.3141 22.0847C27.2814 22.1252 27.2405 22.1372 27.2119 22.1401C27.1831 22.1435 27.1407 22.1399 27.1003 22.1069L26.5327 21.6466C26.5319 21.6458 26.5309 21.6451 26.53 21.6444L19.4469 15.8992C19.1864 15.6881 18.8135 15.6881 18.5528 15.8992L11.4684 21.6455C11.4682 21.6455 11.468 21.6457 11.4678 21.6458L10.8993 22.107C10.8341 22.1599 10.7383 22.1497 10.6855 22.0848L9.9829 21.2186C9.95006 21.1781 9.94675 21.1356 9.94978 21.107C9.95299 21.0784 9.96501 21.0374 10.0054 21.0047ZM20.7149 29.2583H17.285V28.6775C17.285 27.732 18.0543 26.9626 19 26.9626C19.9455 26.9626 20.7149 27.732 20.7149 28.6775V29.2583ZM19.0001 17.3641L25.3707 22.5315V29.2583H22.1344V28.6775C22.1344 26.9493 20.7284 25.5433 19.0001 25.5433C17.2718 25.5433 15.8658 26.9493 15.8658 28.6775V29.2583H12.6294V22.5315L19.0001 17.3641Z" fill="#016450"/>
</svg>
