<svg width="12" height="16" viewBox="0 0 12 16" fill="none" xmlns="http://www.w3.org/2000/svg">
<path d="M5.94677 3.76147C5.51392 3.76147 5.0908 3.88983 4.7309 4.1303C4.37101 4.37078 4.0905 4.71257 3.92486 5.11247C3.75922 5.51237 3.71588 5.9524 3.80032 6.37693C3.88477 6.80145 4.0932 7.19141 4.39927 7.49747C4.70533 7.80354 5.09529 8.01197 5.51981 8.09642C5.94434 8.18086 6.38437 8.13752 6.78427 7.97188C7.18417 7.80624 7.52596 7.52573 7.76644 7.16584C8.00691 6.80594 8.13527 6.38282 8.13527 5.94997C8.13461 5.36975 7.90382 4.81348 7.49354 4.4032C7.08326 3.99292 6.52699 3.76214 5.94677 3.76147ZM5.94677 7.04422C5.73035 7.04422 5.51878 6.98004 5.33884 6.85981C5.15889 6.73957 5.01864 6.56867 4.93581 6.36872C4.85299 6.16878 4.83132 5.94876 4.87355 5.73649C4.91577 5.52423 5.01998 5.32925 5.17302 5.17622C5.32605 5.02319 5.52103 4.91897 5.73329 4.87675C5.94555 4.83453 6.16557 4.8562 6.36552 4.93902C6.56547 5.02184 6.73637 5.16209 6.8566 5.34204C6.97684 5.52199 7.04102 5.73355 7.04102 5.94997C7.04068 6.24008 6.92529 6.51821 6.72015 6.72335C6.51501 6.92849 6.23688 7.04389 5.94677 7.04422Z" fill="#404040"/>
<path d="M10.1522 1.7414C9.11239 0.701877 7.7244 0.0843591 6.25609 0.00802616C4.78778 -0.0683068 3.34324 0.401957 2.20127 1.32806C1.0593 2.25415 0.30085 3.57044 0.0723057 5.02286C-0.156239 6.47528 0.161323 7.96087 0.963702 9.19292L5.09815 15.54C5.19016 15.6812 5.31596 15.7973 5.46415 15.8776C5.61234 15.9579 5.77823 16 5.94679 16C6.11535 16 6.28124 15.9579 6.42943 15.8776C6.57762 15.7973 6.70343 15.6812 6.79543 15.54L10.93 9.19292C11.6745 8.05002 12.0036 6.68593 11.8619 5.32928C11.7203 3.97264 11.1167 2.70591 10.1522 1.7414ZM10.0132 8.59564L5.94681 14.838L1.88041 8.59564C0.6357 6.68484 0.902663 4.12772 2.51518 2.51514C2.96582 2.06448 3.50081 1.707 4.08962 1.4631C4.67842 1.21921 5.30949 1.09368 5.94681 1.09368C6.58412 1.09368 7.2152 1.21921 7.804 1.4631C8.3928 1.707 8.9278 2.06448 9.37844 2.51514C10.991 4.12772 11.2579 6.68484 10.0132 8.59564Z" fill="#404040"/>
</svg>
