<svg width="16" height="16" viewBox="0 0 16 16" fill="none" xmlns="http://www.w3.org/2000/svg">
<path d="M6.78953 1.63214C7.35093 1.7245 7.86127 2.0133 8.22949 2.44702C8.59771 2.88074 8.79987 3.43117 8.79991 4.00012V5.6001H3.99996V4.00012C3.99996 3.16893 4.42236 2.43613 5.06395 2.00574C4.83354 1.80058 4.54873 1.6664 4.24382 1.61938C3.93891 1.57236 3.6269 1.6145 3.34539 1.74072C3.06387 1.86693 2.82485 2.07185 2.65712 2.33078C2.48938 2.58971 2.40008 2.89161 2.39998 3.20013V8.00008H15.1999C15.412 8.00008 15.6155 8.08436 15.7655 8.23439C15.9156 8.38442 15.9998 8.5879 15.9998 8.80007C15.9998 9.01224 15.9156 9.21572 15.7655 9.36575C15.6155 9.51578 15.412 9.60006 15.1999 9.60006V10.4001C15.2 11.3929 14.8923 12.3614 14.3192 13.1721C13.7462 13.9829 12.9359 14.596 11.9999 14.9272V15.2C11.9999 15.4122 11.9156 15.6157 11.7656 15.7657C11.6155 15.9157 11.4121 16 11.1999 16C10.9877 16 10.7842 15.9157 10.6342 15.7657C10.4842 15.6157 10.3999 15.4122 10.3999 15.2H5.59994C5.59994 15.4122 5.51566 15.6157 5.36563 15.7657C5.2156 15.9157 5.01212 16 4.79995 16C4.58778 16 4.3843 15.9157 4.23427 15.7657C4.08425 15.6157 3.99996 15.4122 3.99996 15.2V14.9272C3.06398 14.596 2.25367 13.9829 1.6806 13.1721C1.10753 12.3614 0.799871 11.3929 0.799992 10.4001V9.60006C0.587821 9.60006 0.38434 9.51578 0.234312 9.36575C0.0842846 9.21572 0 9.01224 0 8.80007C0 8.5879 0.0842846 8.38442 0.234312 8.23439C0.38434 8.08436 0.587821 8.00008 0.799992 8.00008V3.20013C0.799957 2.49252 1.03446 1.80486 1.46683 1.24471C1.89919 0.684565 2.50502 0.283523 3.18956 0.10432C3.8741 -0.0748829 4.59872 -0.0221385 5.2501 0.254302C5.90147 0.530743 6.44284 1.01529 6.78953 1.63214ZM13.5999 9.60006H2.39998V10.4001C2.39998 11.2487 2.73711 12.0627 3.33723 12.6628C3.93734 13.2629 4.75126 13.6 5.59994 13.6H10.3999C11.2486 13.6 12.0625 13.2629 12.6626 12.6628C13.2627 12.0627 13.5999 11.2487 13.5999 10.4001V9.60006ZM6.39994 3.20013C6.18777 3.20013 5.98428 3.28441 5.83426 3.43444C5.68423 3.58447 5.59994 3.78795 5.59994 4.00012H7.19993C7.19993 3.78795 7.11564 3.58447 6.96562 3.43444C6.81559 3.28441 6.61211 3.20013 6.39994 3.20013Z" fill="#404040"/>
</svg>
